<?xml version="1.0" standalone="no"?>
<!DOCTYPE svg PUBLIC "-//W3C//DTD SVG 20010904//EN"
 "http://www.w3.org/TR/2001/REC-SVG-20010904/DTD/svg10.dtd">
<svg version="1.0" xmlns="http://www.w3.org/2000/svg"
 width="256.000000pt" height="256.000000pt" viewBox="0 0 256.000000 256.000000"
 preserveAspectRatio="xMidYMid meet">
<metadata>
Created by potrace 1.11, written by Peter Selinger 2001-2013
</metadata>
<g transform="translate(0.000000,256.000000) scale(0.100000,-0.100000)"
fill="#000000" stroke="none">
<path d="M1323 2468 l-22 -21 24 -19 c24 -19 25 -18 45 2 12 12 20 22 18 23
-1 1 -12 10 -24 19 -19 17 -21 16 -41 -4z"/>
<path d="M1259 2412 c12 -23 36 -52 54 -62 40 -25 104 -25 136 -1 20 15 22 21
12 39 -12 23 -45 30 -56 12 -8 -13 -71 -13 -98 1 -12 6 -33 21 -46 33 l-23 21
21 -43z"/>
<path d="M1114 2376 c-18 -8 -35 -19 -38 -25 -11 -16 26 -62 44 -54 67 27 85
30 107 20 28 -12 31 -51 6 -62 -10 -5 -30 -9 -45 -9 -15 -1 -30 -4 -33 -8 -11
-11 25 -68 43 -68 26 0 62 -37 62 -64 0 -12 -14 -35 -31 -52 -24 -23 -39 -29
-74 -29 -51 0 -82 24 -115 89 l-21 41 6 -40 c21 -132 152 -201 239 -125 44 39
59 93 42 147 -6 18 -4 22 9 17 30 -12 72 16 100 67 21 39 32 49 48 47 34 -5
48 -61 31 -118 -21 -71 -66 -90 -118 -49 -27 22 -33 12 -15 -24 41 -79 140
-74 175 9 29 70 11 161 -41 202 -53 42 -104 24 -149 -52 -27 -47 -48 -60 -77
-51 -18 6 -27 25 -11 25 11 0 33 39 38 66 5 30 -18 77 -48 98 -27 19 -92 20
-134 2z"/>
<path d="M865 1969 c6 -9 3 -11 -8 -6 -10 3 -17 2 -17 -3 0 -6 -11 -10 -25
-10 -14 0 -28 -7 -31 -15 -4 -8 -9 -13 -13 -11 -4 3 -22 -8 -41 -24 -19 -16
-38 -26 -43 -23 -6 3 -7 1 -3 -5 4 -7 2 -12 -5 -12 -7 0 -9 -3 -6 -7 4 -3 -3
-16 -16 -27 -31 -31 -59 -84 -51 -98 4 -7 3 -8 -4 -4 -7 4 -12 1 -12 -9 0 -9
-3 -14 -7 -12 -5 3 -9 -11 -10 -31 -1 -20 -7 -38 -12 -40 -6 -2 -11 -8 -11
-13 0 -6 4 -8 8 -5 5 3 9 -1 9 -9 0 -8 -4 -12 -9 -9 -5 3 -8 -28 -7 -70 1 -52
5 -73 13 -69 6 4 5 -1 -3 -10 -7 -9 -9 -17 -3 -17 5 0 12 -7 15 -14 4 -11 1
-13 -11 -10 -15 5 -16 4 -1 -8 9 -7 15 -21 13 -31 -1 -10 2 -14 9 -10 6 4 8 0
4 -10 -3 -10 -2 -17 3 -17 5 0 7 -9 5 -20 -2 -11 0 -18 5 -15 8 5 34 -52 31
-67 0 -5 3 -8 9 -8 5 0 10 -5 10 -11 0 -7 10 -20 22 -30 11 -11 18 -19 15 -19
-3 0 5 -12 19 -27 13 -14 35 -39 47 -55 12 -15 27 -28 32 -28 6 0 16 -9 23
-20 7 -11 16 -20 21 -20 13 0 79 -68 73 -75 -3 -3 1 -5 9 -5 7 0 31 -19 51
-41 21 -23 38 -38 38 -35 0 4 7 1 15 -8 8 -8 15 -20 15 -26 0 -6 4 -9 9 -5 6
3 13 -1 18 -8 4 -8 15 -17 23 -20 10 -4 7 -6 -7 -6 -13 -1 -23 4 -23 11 0 6
-3 8 -7 5 -3 -4 -13 -2 -20 5 -14 11 -32 16 -75 20 -10 1 -18 5 -18 8 0 8
-160 6 -180 -2 -8 -4 -32 -12 -52 -18 -21 -6 -38 -16 -38 -22 0 -6 -3 -8 -6
-5 -9 9 -62 -29 -104 -75 -54 -58 -59 -65 -53 -72 4 -3 2 -6 -4 -6 -9 0 -26
-33 -39 -75 -1 -5 -7 -24 -12 -41 -12 -38 -12 -174 0 -174 4 0 8 -9 8 -20 0
-21 41 -109 63 -137 34 -43 110 -113 123 -113 8 0 14 -4 14 -9 0 -32 236 -64
269 -37 8 6 16 10 17 9 7 -5 64 10 64 16 0 3 18 15 40 25 22 11 40 23 40 28 0
4 6 8 14 8 8 0 23 10 33 23 10 12 29 30 43 40 13 9 21 17 18 17 -4 0 7 15 25
33 18 17 61 68 97 111 36 43 75 89 88 102 12 13 22 25 22 28 0 5 119 123 143
141 25 19 60 37 101 52 43 15 155 20 165 6 3 -4 15 -10 26 -11 11 -2 22 -8 23
-13 2 -5 9 -9 15 -9 16 0 52 -56 65 -100 15 -48 22 -100 14 -100 -4 0 -7 -15
-8 -32 -3 -108 -70 -191 -167 -209 -39 -7 -144 12 -157 29 -3 4 -11 8 -19 10
-19 4 -83 55 -114 90 -44 51 -82 60 -125 30 -13 -8 -27 -29 -32 -46 -12 -44
21 -92 126 -182 38 -33 122 -73 184 -88 51 -11 230 -5 230 9 0 7 39 22 52 20
7 -1 96 84 118 114 15 20 38 66 37 75 0 3 6 16 13 30 8 14 16 32 18 40 7 26 9
200 2 200 -3 0 -5 12 -4 27 1 42 -54 142 -107 194 -66 66 -138 91 -259 94 -52
1 -101 -2 -107 -8 -7 -5 -13 -7 -13 -4 0 7 -59 -16 -107 -41 -18 -9 -33 -20
-33 -25 0 -4 -4 -6 -10 -2 -10 6 24 45 41 45 5 0 7 5 4 10 -3 6 -2 10 3 10 16
0 52 37 44 45 -4 5 -2 5 5 1 6 -3 19 4 28 16 8 13 19 23 23 23 4 0 6 3 5 8 -2
4 6 7 17 7 13 0 18 5 14 15 -4 10 0 15 15 15 13 0 21 6 21 17 0 9 3 14 6 10 3
-3 23 12 44 33 21 21 40 36 43 34 3 -3 8 4 12 15 4 12 11 18 17 15 8 -5 9 -1
5 10 -5 14 -3 17 8 12 8 -3 15 -1 15 5 0 5 11 21 25 34 13 14 22 25 18 25 -3
0 5 9 18 21 13 11 17 18 9 14 -8 -4 -5 2 7 13 12 11 19 22 16 26 -4 3 -1 6 6
6 7 0 9 5 6 10 -3 6 -1 10 4 10 6 0 10 3 9 8 -1 4 4 20 10 35 7 16 9 33 6 39
-4 7 -2 8 4 4 8 -5 12 0 12 13 0 11 5 23 10 26 8 5 7 11 -1 21 -9 11 -9 13 2
9 10 -4 14 4 15 30 1 23 -2 32 -10 28 -6 -4 -5 1 2 10 15 17 14 104 0 124 -5
6 -5 14 1 17 6 4 8 13 5 21 -4 8 -10 13 -15 10 -4 -3 -6 4 -4 15 2 11 -1 20
-6 20 -6 0 -7 5 -4 10 3 6 1 10 -5 10 -6 0 -9 4 -6 9 3 5 -5 25 -19 45 -14 20
-25 40 -25 44 0 13 -47 62 -54 55 -3 -3 -6 2 -6 12 0 10 -3 15 -7 12 -3 -4
-11 0 -17 9 -6 8 -20 17 -31 18 -11 2 -19 9 -17 16 1 6 -3 10 -10 8 -7 -3 -19
1 -26 9 -8 7 -18 11 -23 8 -5 -4 -9 -1 -9 6 0 9 -3 9 -14 0 -11 -9 -16 -9 -22
0 -5 8 -3 10 7 4 8 -5 11 -4 6 0 -11 12 -116 15 -123 4 -4 -6 -11 -6 -20 2
-11 9 -14 9 -14 -1 0 -9 -4 -9 -13 -2 -14 12 -52 -10 -39 -23 4 -5 1 -5 -6 -1
-19 11 -72 -13 -104 -46 -16 -15 -28 -22 -28 -15 0 6 -8 0 -18 -15 -10 -15
-28 -35 -40 -46 -12 -10 -19 -22 -16 -25 4 -3 -3 -5 -15 -4 -11 1 -21 7 -21
14 0 7 -4 13 -10 13 -5 0 -10 5 -10 11 0 6 -7 17 -15 25 -8 9 -15 13 -15 10 0
-3 -14 9 -31 27 -17 17 -34 32 -37 32 -4 0 -6 4 -4 8 1 5 -2 6 -7 3 -5 -4 -12
-2 -16 3 -3 6 -12 8 -20 4 -8 -3 -15 0 -15 7 0 6 -4 8 -10 5 -5 -3 -10 -1 -10
6 0 10 -3 10 -11 2 -9 -9 -18 -8 -35 4 -19 12 -24 13 -24 2 0 -9 -3 -10 -8 -4
-9 14 -104 17 -96 3 4 -5 -4 -5 -16 2 -18 10 -21 9 -15 -1z m576 -1252 c-10
-9 -11 -8 -5 6 3 10 9 15 12 12 3 -3 0 -11 -7 -18z m-270 -14 c13 -16 12 -17
-3 -4 -10 7 -18 15 -18 17 0 8 8 3 21 -13z m136 -93 c23 8 25 8 12 -2 -9 -7
-18 -17 -20 -23 -4 -10 -31 -45 -59 -74 -8 -9 -31 -36 -50 -61 -139 -178 -254
-268 -341 -270 -33 -1 -81 5 -86 10 -3 3 -6 4 -40 15 -13 4 -21 10 -19 14 3 4
-8 15 -23 25 -31 21 -76 108 -76 149 0 15 -3 27 -6 27 -14 0 10 84 37 128 38
60 120 117 177 121 110 8 163 -15 256 -110 40 -41 54 -50 78 -47 71 8 101 70
64 133 -11 20 -21 38 -21 40 0 2 20 -16 45 -40 40 -40 47 -44 72 -35z m43 30
c0 -5 -5 -10 -11 -10 -5 0 -7 5 -4 10 3 6 8 10 11 10 2 0 4 -4 4 -10z"/>
</g>
</svg>
